<?xml version="1.0" encoding="utf-8"?>
<!-- Generator: Adobe Illustrator 16.0.0, SVG Export Plug-In . SVG Version: 6.00 Build 0)  -->
<!DOCTYPE svg PUBLIC "-//W3C//DTD SVG 1.1//EN" "http://www.w3.org/Graphics/SVG/1.1/DTD/svg11.dtd">
<svg version="1.1" id="Layer_1" xmlns="http://www.w3.org/2000/svg" xmlns:xlink="http://www.w3.org/1999/xlink" x="0px" y="0px"
	 width="360px" height="150px" viewBox="0 0 360 150" enable-background="new 0 0 360 150" xml:space="preserve">
<rect x="90.235" y="59.094" fill="#222165" width="3.402" height="34.037"/>
<g>
	<defs>
		<rect id="SVGID_1_" x="3.314" y="-51.591" width="355.353" height="274.591"/>
	</defs>
	<clipPath id="SVGID_2_">
		<use xlink:href="#SVGID_1_"  overflow="visible"/>
	</clipPath>
	<path clip-path="url(#SVGID_2_)" fill="#222165" d="M100.902,67.956h3.239v4.512c1.296-1.728,2.731-3.02,4.304-3.876
		s3.286-1.283,5.137-1.283c1.882,0,3.552,0.478,5.009,1.434c1.458,0.956,2.534,2.245,3.229,3.865
		c0.694,1.619,1.041,4.141,1.041,7.566v12.957h-3.24V81.122c0-2.9-0.119-4.836-0.36-5.808c-0.375-1.666-1.095-2.919-2.16-3.761
		c-1.064-0.841-2.452-1.26-4.165-1.26c-1.961,0-3.716,0.646-5.266,1.943c-1.55,1.296-2.573,2.899-3.066,4.813
		c-0.308,1.249-0.463,3.532-0.463,6.849v9.232h-3.239V67.956z"/>
	<polygon clip-path="url(#SVGID_2_)" fill="#222165" points="127.42,67.956 130.867,67.956 139.317,86.307 147.666,67.956 
		151.137,67.956 139.613,93.131 139.013,93.131 	"/>
	<path clip-path="url(#SVGID_2_)" fill="#222165" d="M157.188,57.59c0.738,0,1.368,0.262,1.89,0.786
		c0.521,0.524,0.783,1.157,0.783,1.898c0,0.725-0.263,1.349-0.783,1.873c-0.522,0.525-1.152,0.787-1.89,0.787
		c-0.721,0-1.344-0.262-1.867-0.787c-0.522-0.524-0.782-1.148-0.782-1.873c0-0.741,0.26-1.374,0.782-1.898
		C155.844,57.852,156.467,57.59,157.188,57.59 M155.581,67.955h3.239v25.176h-3.239V67.955z"/>
	<path clip-path="url(#SVGID_2_)" fill="#222165" d="M186.748,84.777l2.729,1.436c-0.894,1.758-1.93,3.177-3.104,4.258
		c-1.172,1.079-2.493,1.9-3.957,2.464c-1.468,0.563-3.128,0.845-4.982,0.845c-4.106,0-7.317-1.347-9.633-4.039
		c-2.316-2.691-3.476-5.734-3.476-9.128c0-3.192,0.979-6.038,2.941-8.538c2.486-3.178,5.814-4.766,9.983-4.766
		c4.292,0,7.72,1.627,10.283,4.882c1.821,2.299,2.747,5.168,2.778,8.607h-22.653c0.062,2.923,0.996,5.322,2.803,7.19
		c1.808,1.871,4.039,2.806,6.695,2.806c1.283,0,2.527-0.224,3.741-0.669c1.212-0.446,2.244-1.038,3.093-1.773
		C184.841,87.612,185.758,86.422,186.748,84.777 M186.748,77.998c-0.433-1.729-1.063-3.108-1.888-4.142
		c-0.827-1.034-1.921-1.867-3.278-2.499c-1.36-0.633-2.788-0.948-4.287-0.948c-2.471,0-4.595,0.794-6.37,2.383
		c-1.298,1.156-2.279,2.893-2.942,5.206H186.748z"/>
	<path clip-path="url(#SVGID_2_)" fill="#222165" d="M195.124,67.956h3.309v3.679c0.988-1.45,2.029-2.533,3.124-3.25
		c1.096-0.719,2.237-1.076,3.425-1.076c0.895,0,1.852,0.285,2.87,0.855l-1.69,2.73c-0.678-0.294-1.249-0.439-1.712-0.439
		c-1.079,0-2.121,0.443-3.124,1.33s-1.766,2.264-2.291,4.131c-0.4,1.435-0.602,4.335-0.602,8.699v8.516h-3.309V67.956z"/>
	<polygon clip-path="url(#SVGID_2_)" fill="#222165" points="213.427,58.607 216.667,58.607 216.667,67.956 221.804,67.956 
		221.804,70.756 216.667,70.756 216.667,93.131 213.427,93.131 213.427,70.756 209.008,70.756 209.008,67.956 213.427,67.956 	"/>
	<path clip-path="url(#SVGID_2_)" fill="#222165" d="M247.856,84.777l2.729,1.436c-0.895,1.758-1.928,3.177-3.101,4.258
		c-1.172,1.079-2.494,1.9-3.96,2.464c-1.469,0.563-3.128,0.845-4.979,0.845c-4.11,0-7.319-1.347-9.633-4.039
		c-2.317-2.691-3.476-5.734-3.476-9.128c0-3.192,0.976-6.038,2.939-8.538c2.487-3.178,5.813-4.766,9.984-4.766
		c4.288,0,7.721,1.627,10.281,4.882c1.82,2.299,2.746,5.168,2.776,8.607h-22.652c0.062,2.923,0.999,5.322,2.807,7.19
		c1.806,1.871,4.035,2.806,6.696,2.806c1.279,0,2.525-0.224,3.741-0.669c1.21-0.446,2.243-1.038,3.093-1.773
		C245.951,87.612,246.869,86.422,247.856,84.777 M247.856,77.998c-0.433-1.729-1.062-3.108-1.886-4.142
		c-0.829-1.034-1.921-1.867-3.278-2.499c-1.362-0.633-2.788-0.948-4.285-0.948c-2.475,0-4.596,0.794-6.37,2.383
		c-1.3,1.156-2.283,2.893-2.946,5.206H247.856z"/>
	<path clip-path="url(#SVGID_2_)" fill="#009EE2" d="M283.15,74.957c0,6.45-4.126,10.206-11.31,10.206h-6.573v8.616h-4.821V65.197
		h11.395C279.024,65.197,283.15,68.75,283.15,74.957 M278.537,75.078c0-3.755-2.491-5.553-6.899-5.553h-6.37v11.312h6.37
		C276.046,80.837,278.537,78.957,278.537,75.078"/>
	<polygon clip-path="url(#SVGID_2_)" fill="#009EE2" points="307.457,65.197 307.457,69.525 298.394,69.525 298.394,93.779 
		293.576,93.779 293.576,69.525 284.554,69.525 284.554,65.197 	"/>
	<polygon clip-path="url(#SVGID_2_)" fill="#009EE2" points="324.947,84.266 324.947,93.779 320.171,93.779 320.171,84.428 
		309.512,65.197 314.371,65.197 322.538,79.121 330.54,65.197 335.44,65.197 	"/>
	<polygon clip-path="url(#SVGID_2_)" fill="#009EE2" points="53.419,50.867 36.761,62.851 36.761,101.719 25.363,96.459 
		25.363,57.59 53.419,38.593 81.203,57.59 81.203,96.459 69.848,101.719 69.848,62.851 	"/>
	<polygon clip-path="url(#SVGID_2_)" fill="#0078A8" points="51.666,59.928 40.852,66.941 40.852,92.368 51.666,97.238 	"/>
	<polygon clip-path="url(#SVGID_2_)" fill="#0078A8" points="55.465,68.695 55.465,97.238 66.278,92.367 66.278,75.807 	"/>
	<polygon clip-path="url(#SVGID_2_)" fill="#222165" points="40.852,92.367 36.761,93.391 36.761,101.719 51.665,97.238 	"/>
	<polygon clip-path="url(#SVGID_2_)" fill="#222165" points="66.278,92.367 69.848,93.098 69.848,101.719 55.465,97.043 	"/>
</g>
</svg>
